# xmcd
#
# Track frame offsets: 
#        150
#        12272
#        24205
#        37255
#        48677
#        62020
#        74837
#        83330
#        96640
#        114515
#        128092
#        140900
#        158912
#        169540
#        181845
#        196037
#        206377
#        218822
#        229172
#        241622
#
# Disc length: 3386 seconds
#
# Revision: 0
# Processed by: cddbd v1.4PL0 Copyright (c) Steve Scherf et al.
# Submitted via: ExactAudioCopy v0.95a3
#
DISCID=140d3814
DTITLE=Various Artist - Blues Gallery
DYEAR=1994
DGENRE=blues
TTITLE0=Elmore James - Mean Mistreatin'Mama
TTITLE1=B.B.King - Paying the cost to be the boss
TTITLE2=Little Walter - Roller Coaster
TTITLE3=John Lee Hooker - Boogie Chillen
TTITLE4=Muddy Waters - She moves me
TTITLE5=Howlin' Wolf - Back door man
TTITLE6=Big Joe Williams - Goin' away, won't be back 'till fall
TTITLE7=Sonny Boy Williamson - sad to be alone
TTITLE8=John Mayall - Mama talk to your daughter
TTITLE9=Memphis Slim  - Slim's Blues
TTITLE10=Muddy Waters-  40 days and 40 nights
TTITLE11=John Lee Hooker - House rent boogie
TTITLE12=Howlin'Wolf - Built for Comfort
TTITLE13=Little Walter - Last Night
TTITLE14=Sonny Boy Williamson - Help me
TTITLE15=John Mayall  - Road show
TTITLE16=John Lee Hooker - Baby Lee
TTITLE17=Howlin'Wolf - Do the do
TTITLE18=Muddy Waters  - All aboard
TTITLE19=Elmore James - Standing at the crossroads
EXTD=
EXTT0=
EXTT1=
EXTT2=
EXTT3=
EXTT4=
EXTT5=
EXTT6=
EXTT7=
EXTT8=
EXTT9=
EXTT10=
EXTT11=
EXTT12=
EXTT13=
EXTT14=
EXTT15=
EXTT16=
EXTT17=
EXTT18=
EXTT19=
PLAYORDER=
